# xmcd
#
# Track frame offsets:
#	150
#	19446
#	38195
#	58402
#	71340
#	94070
#	117827
#	136790
#	159447
#	179683
#	202239
#	224867
#	243551
#	265841
#	281377
#	293986
#	319433
#
# Disc length: 4467 seconds
#
# Revision: 1
# Processed by: cddbd v1.4PL0 Copyright (c) Steve Scherf et al.
# Submitted via: CDmax 1.8
#
DISCID=18117111
DTITLE=Various Artist - Blues on the Rocks
DYEAR=1996
DGENRE=Blues
TTITLE0=John Lee Hoover "Boom Boom"
TTITLE1=George Thorogood and The Destroyers"Get a Haircut"
TTITLE2=The Animals "House of Rising Sun"
TTITLE3=Fleetwood Mac "Black Magic Woman"
TTITLE4=Albert Collins " Iceman"
TTITLE5=Muddy Waters "Mannish Boy"
TTITLE6=Jeff Beck and Rod Stewart "Rock My Plimsoul"
TTITLE7=B.B. King "The Thrill Is Gone"
TTITLE8=Buddy Guy "Damn Right I've Got the Blues"
TTITLE9=Canned Heat "On the Road Again"
TTITLE10=Pops Staples "Down in Mississippi"
TTITLE11=Gary Moore "Still Got the Blues"
TTITLE12=Ike and Tina Turner "Proud Mary"
TTITLE13=Johnny Winter "Johnny Guitar"
TTITLE14=Duke Robillard "When My Love Comes Down"
TTITLE15=Stevie Ray Vaughan and Double Trouble "I+m leaving You (Commit a Crime)
TTITLE15="
TTITLE16=John Hammond "Trouble Blues"
EXTD=
EXTT0=
EXTT1=
EXTT2=
EXTT3=
EXTT4=
EXTT5=
EXTT6=
EXTT7=
EXTT8=
EXTT9=
EXTT10=
EXTT11=
EXTT12=
EXTT13=
EXTT14=
EXTT15=
EXTT16=
PLAYORDER=
